# xmcd
#
# Track frame offsets:
#	150
#	17892
#	39432
#
# Disc length: 969 seconds
#
# Revision: 0
# Processed by: cddbd v1.4PL0 Copyright (c) Steve Scherf et al.
# Submitted via: audiograbber 1.81.03
#
DISCID=1b03c703
DTITLE=Buddy Guy - Baby Please Don't Leave Me
DYEAR=2001
DGENRE=
TTITLE0=Baby Please Don't Leave Me
TTITLE1=Look What All you Got
TTITLE2=Baby Please Don't Leave Me
EXTD=
EXTT0=
EXTT1=
EXTT2=
PLAYORDER=
